<svg xmlns="http://www.w3.org/2000/svg" width="18" height="18" viewBox="0 0 18 18" fill="none">
  <path d="M10.4062 4.78125V9C10.4062 9.93076 9.64951 10.6875 8.71875 10.6875C7.78799 10.6875 7.03125 9.93076 7.03125 9V4.78125C7.03125 3.85049 7.78799 3.09375 8.71875 3.09375C9.64951 3.09375 10.4062 3.85049 10.4062 4.78125ZM6.1875 4.78125V9C6.1875 10.3975 7.32129 11.5312 8.71875 11.5312C10.1162 11.5312 11.25 10.3975 11.25 9V4.78125C11.25 3.38379 10.1162 2.25 8.71875 2.25C7.32129 2.25 6.1875 3.38379 6.1875 4.78125ZM5.34375 7.73438C5.34375 7.50234 5.15391 7.3125 4.92188 7.3125C4.68984 7.3125 4.5 7.50234 4.5 7.73438V9C4.5 11.1885 6.16377 12.9867 8.29688 13.1977V14.9062H6.60938C6.37734 14.9062 6.1875 15.0961 6.1875 15.3281C6.1875 15.5602 6.37734 15.75 6.60938 15.75H8.71875H10.8281C11.0602 15.75 11.25 15.5602 11.25 15.3281C11.25 15.0961 11.0602 14.9062 10.8281 14.9062H9.14062V13.1977C11.2737 12.9867 12.9375 11.1885 12.9375 9V7.73438C12.9375 7.50234 12.7477 7.3125 12.5156 7.3125C12.2836 7.3125 12.0938 7.50234 12.0938 7.73438V9C12.0938 10.8642 10.5829 12.375 8.71875 12.375C6.85459 12.375 5.34375 10.8642 5.34375 9V7.73438Z" fill="#5C6779"/>
</svg>