<svg width="33" height="32" viewBox="0 0 33 32" fill="none" xmlns="http://www.w3.org/2000/svg">
<rect x="0.272705" width="32" height="32" rx="3" fill="#F7931F"/>
<rect x="3.92985" y="2.74219" width="3.65714" height="3.65714" fill="#C56D07"/>
<rect x="3.92985" y="7.3125" width="3.65714" height="3.65714" fill="#C56D07"/>
<rect x="3.92985" y="11.8828" width="3.65714" height="3.65714" fill="#C56D07"/>
<rect x="3.92985" y="16.4531" width="3.65714" height="3.65714" fill="#C56D07"/>
<rect x="3.92985" y="21.0312" width="3.65714" height="3.65714" fill="#C56D07"/>
<rect x="3.92985" y="25.6016" width="3.65714" height="3.65714" fill="#C56D07"/>
<rect x="24.9584" y="2.74219" width="3.65714" height="3.65714" fill="#C56D07"/>
<rect x="24.9584" y="7.3125" width="3.65714" height="3.65714" fill="#C56D07"/>
<rect x="24.9584" y="11.8828" width="3.65714" height="3.65714" fill="#C56D07"/>
<rect x="24.9584" y="16.4531" width="3.65714" height="3.65714" fill="#C56D07"/>
<rect x="24.9584" y="21.0312" width="3.65714" height="3.65714" fill="#C56D07"/>
<rect x="24.9584" y="25.6016" width="3.65714" height="3.65714" fill="#C56D07"/>
<path d="M21.3013 15.5404C21.3016 15.6837 21.2654 15.8246 21.1963 15.9495C21.1271 16.0743 21.0272 16.1789 20.9065 16.253L13.4218 20.9019C13.2956 20.9804 13.1511 21.0232 13.0031 21.026C12.8552 21.0288 12.7092 20.9914 12.5802 20.9177C12.4525 20.8452 12.3461 20.7395 12.272 20.6113C12.1978 20.4832 12.1586 20.3374 12.1584 20.1888V10.892C12.1586 10.7434 12.1978 10.5976 12.272 10.4695C12.3461 10.3413 12.4525 10.2356 12.5802 10.1631C12.7092 10.0894 12.8552 10.0521 13.0031 10.0548C13.1511 10.0576 13.2956 10.1004 13.4218 10.1789L20.9065 14.8278C21.0272 14.9019 21.1271 15.0065 21.1963 15.1313C21.2654 15.2562 21.3016 15.3971 21.3013 15.5404Z" fill="white"/>
</svg>
