<svg width="16" height="7" viewBox="0 0 16 7" fill="none" xmlns="http://www.w3.org/2000/svg">
<path d="M7.01536 3.33333C6.77092 3.33333 6.56825 3.23889 6.40736 3.05C6.24603 2.86111 6.18759 2.63889 6.23203 2.38333L6.3987 1.35C6.46536 0.961111 6.65159 0.638889 6.95736 0.383333C7.2627 0.127778 7.60981 0 7.9987 0C8.3987 0 8.75159 0.127778 9.05736 0.383333C9.3627 0.638889 9.5487 0.961111 9.61536 1.35L9.78203 2.38333C9.82648 2.63889 9.76825 2.86111 9.60736 3.05C9.44603 3.23889 9.24314 3.33333 8.9987 3.33333H7.01536ZM7.2487 2.33333H8.76536L8.63203 1.51667C8.60981 1.36111 8.53759 1.236 8.41536 1.14133C8.29314 1.04711 8.15425 1 7.9987 1C7.84314 1 7.70692 1.04711 7.59003 1.14133C7.47359 1.236 7.40425 1.36111 7.38203 1.51667L7.2487 2.33333ZM2.28203 3.88333C2.07092 3.89444 1.88492 3.85267 1.72403 3.758C1.5627 3.66378 1.45981 3.51667 1.41536 3.31667C1.39314 3.22778 1.38759 3.14156 1.3987 3.058C1.40981 2.97489 1.43203 2.89444 1.46536 2.81667C1.46536 2.82778 1.45981 2.80556 1.4487 2.75C1.43759 2.72778 1.39314 2.61667 1.31536 2.41667C1.29314 2.29444 1.30714 2.18333 1.35736 2.08333C1.40714 1.98333 1.46536 1.89444 1.53203 1.81667C1.54314 1.81667 1.55425 1.80556 1.56536 1.78333C1.58759 1.60556 1.6627 1.45556 1.7907 1.33333C1.91825 1.21111 2.07648 1.15 2.26536 1.15C2.28759 1.15 2.37648 1.16667 2.53203 1.2H2.58203C2.62648 1.14444 2.68759 1.10556 2.76536 1.08333C2.84314 1.06111 2.92092 1.05 2.9987 1.05C3.10981 1.05 3.20714 1.06667 3.2907 1.1C3.37381 1.13333 3.43759 1.18333 3.48203 1.25C3.49314 1.25 3.50159 1.25267 3.50736 1.258L3.51536 1.26667C3.6487 1.27778 3.76536 1.31933 3.86536 1.39133C3.96536 1.46378 4.04314 1.56111 4.0987 1.68333C4.10981 1.75 4.11536 1.81111 4.11536 1.86667C4.11536 1.92222 4.10425 1.98333 4.08203 2.05L4.0987 2.1C4.16536 2.17778 4.21536 2.25267 4.2487 2.32467C4.28203 2.39711 4.2987 2.47778 4.2987 2.56667C4.2987 2.6 4.27092 2.7 4.21536 2.86667V2.93333C4.22648 2.94444 4.23759 3.02222 4.2487 3.16667C4.2487 3.36667 4.16536 3.536 3.9987 3.67467C3.83203 3.81378 3.63203 3.88333 3.3987 3.88333H2.28203ZM13.182 3.91667C12.8598 3.91667 12.5876 3.80556 12.3654 3.58333C12.1431 3.36111 12.032 3.09444 12.032 2.78333C12.032 2.66111 12.0487 2.55289 12.082 2.45867C12.1154 2.364 12.1598 2.26667 12.2154 2.16667L11.8154 1.81667C11.7154 1.73889 11.6987 1.64444 11.7654 1.53333C11.832 1.42222 11.9209 1.36667 12.032 1.36667H13.1654C13.4876 1.36667 13.7598 1.47778 13.982 1.7C14.2043 1.92222 14.3154 2.18889 14.3154 2.5V2.78333C14.3154 3.09444 14.2043 3.36111 13.982 3.58333C13.7598 3.80556 13.4931 3.91667 13.182 3.91667ZM0.332031 6.86667V6.05C0.332031 5.59445 0.565365 5.22778 1.03203 4.95C1.4987 4.67222 2.0987 4.53333 2.83203 4.53333C2.97648 4.53333 3.10981 4.536 3.23203 4.54133C3.35425 4.54711 3.47092 4.56111 3.58203 4.58333C3.45981 4.78333 3.36536 4.99444 3.2987 5.21667C3.23203 5.43889 3.1987 5.67222 3.1987 5.91667V6.86667H0.332031ZM4.33203 6.86667V5.95C4.33203 5.30556 4.67092 4.79178 5.3487 4.40867C6.02648 4.02511 6.90981 3.83333 7.9987 3.83333C9.0987 3.83333 9.98492 4.02511 10.6574 4.40867C11.3294 4.79178 11.6654 5.30556 11.6654 5.95V6.86667H4.33203ZM13.1654 4.53333C13.9098 4.53333 14.5125 4.67222 14.9734 4.95C15.4347 5.22778 15.6654 5.59445 15.6654 6.05V6.86667H12.7987V5.91667C12.7987 5.67222 12.768 5.43889 12.7067 5.21667C12.6458 4.99444 12.5543 4.78333 12.432 4.58333C12.5543 4.56111 12.6765 4.54711 12.7987 4.54133C12.9209 4.536 13.0431 4.53333 13.1654 4.53333ZM7.9987 4.83333C7.30981 4.83333 6.71536 4.92489 6.21536 5.108C5.71536 5.29156 5.43759 5.51667 5.38203 5.78333V5.86667H10.632V5.78333C10.5654 5.51667 10.2849 5.29156 9.7907 5.108C9.29603 4.92489 8.6987 4.83333 7.9987 4.83333Z" fill="#404041"/>
</svg>
